<svg width="43" height="20" viewBox="0 0 43 20" fill="none" xmlns="http://www.w3.org/2000/svg">
<path fill-rule="evenodd" clip-rule="evenodd" d="M10.7788 16.5654H7.16328L4.45199 6.22176C4.32333 5.746 4.05007 5.32532 3.64815 5.12709C2.64506 4.62892 1.53974 4.23237 0.333984 4.03243V3.63418H6.15839C6.96232 3.63418 7.5652 4.23237 7.66563 4.92716L9.07243 12.3883L12.6863 3.63418H16.2013L10.7788 16.5654ZM18.211 16.5654H14.7964L17.6081 3.63418H21.0227L18.211 16.5654ZM25.4404 7.21649C25.541 6.52008 26.1438 6.12183 26.8472 6.12183C27.9526 6.02182 29.1565 6.22184 30.1614 6.71831L30.7643 3.93413C29.7594 3.53587 28.6542 3.33594 27.6511 3.33594C24.3369 3.33594 21.9253 5.12709 21.9253 7.61304C21.9253 9.50421 23.6335 10.4972 24.8393 11.0953C26.1438 11.6918 26.6463 12.0901 26.5457 12.6866C26.5457 13.5813 25.541 13.9795 24.5379 13.9795C23.3321 13.9795 22.1263 13.6813 21.0227 13.183L20.4199 15.9689C21.6256 16.4654 22.9302 16.6654 24.1359 16.6654C27.852 16.7636 30.1614 14.9742 30.1614 12.2883C30.1614 8.90593 25.4404 8.7077 25.4404 7.21649ZM42.1117 16.5654L39.4004 3.63418H36.4883C35.8853 3.63418 35.2824 4.03243 35.0814 4.62892L30.0609 16.5654H33.576L34.2776 14.6759H38.5966L38.9985 16.5654H42.1117ZM36.9906 7.11657L37.9937 11.9901H35.182L36.9906 7.11657Z" fill="#172B85"/>
</svg>
