<svg width="48" height="20" viewBox="0 0 48 20" fill="none" xmlns="http://www.w3.org/2000/svg">
<path fill-rule="evenodd" clip-rule="evenodd" d="M42.3465 3.33594H33.4894C33.9656 6.28832 36.8227 9.05022 39.9656 9.05022H47.0132C47.1084 8.76451 47.1084 8.38356 47.1084 8.09784C47.1084 5.43118 45.0132 3.33594 42.3465 3.33594Z" fill="url(#paint0_linear_990_8207)"/>
<path fill-rule="evenodd" clip-rule="evenodd" d="M34.2513 9.52641V16.6693H38.537V12.8597H42.3465C44.4418 12.8597 46.2513 11.4312 46.8227 9.52641H34.2513Z" fill="#4DB45F"/>
<path fill-rule="evenodd" clip-rule="evenodd" d="M19.0132 3.33594V16.6693H22.8227C22.8227 16.6693 23.7751 16.6693 24.2513 15.7169C26.8227 10.574 27.5846 9.05022 27.5846 9.05022H28.0608V16.6693H32.3465V3.33594H28.537C28.537 3.33594 27.5846 3.43118 27.1084 4.28832C24.918 8.66927 23.7751 10.955 23.7751 10.955H23.2989V3.33594H19.0132Z" fill="#4DB45F"/>
<path fill-rule="evenodd" clip-rule="evenodd" d="M0.917969 16.6693V3.33594H5.20368C5.20368 3.33594 6.44178 3.33594 7.10845 5.2407C8.82273 10.2883 9.01321 10.955 9.01321 10.955C9.01321 10.955 9.39416 9.71689 10.918 5.2407C11.5846 3.33594 12.8227 3.33594 12.8227 3.33594H17.1084V16.6693H12.8227V9.52641H12.3465L9.96559 16.6693H8.06083L5.67987 9.52641H5.20368V16.6693H0.917969Z" fill="#4DB45F"/>
<defs>
<linearGradient id="paint0_linear_990_8207" x1="0.834632" y1="10.0026" x2="47.1084" y2="10.0026" gradientUnits="userSpaceOnUse">
<stop stop-color="#00B4E6"/>
<stop offset="1" stop-color="#088CCB"/>
</linearGradient>
</defs>
</svg>
