<svg width="20" height="20" viewBox="0 0 20 20" fill="none" xmlns="http://www.w3.org/2000/svg">
<path d="M3.33301 6.66663H16.6663M3.33301 6.66663V14.0001C3.33301 14.9335 3.33301 15.4 3.51466 15.7565C3.67445 16.0701 3.92924 16.3254 4.24284 16.4851C4.59901 16.6666 5.0655 16.6666 5.9971 16.6666H14.0022C14.9338 16.6666 15.3997 16.6666 15.7558 16.4851C16.0694 16.3254 16.3251 16.0701 16.4849 15.7565C16.6663 15.4004 16.6663 14.9345 16.6663 14.0029V6.66663M3.33301 6.66663V6.00012C3.33301 5.0667 3.33301 4.59964 3.51466 4.24312C3.67445 3.92952 3.92924 3.67474 4.24284 3.51495C4.59936 3.33329 5.06642 3.33329 5.99984 3.33329H6.66634M16.6663 6.66663V5.99738C16.6663 5.06579 16.6663 4.59929 16.4849 4.24312C16.3251 3.92952 16.0694 3.67474 15.7558 3.51495C15.3993 3.33329 14.9333 3.33329 13.9998 3.33329H13.333M13.333 1.66663V3.33329M13.333 3.33329H6.66634M6.66634 1.66663V3.33329" stroke="#012B7A" stroke-width="2" stroke-linecap="round" stroke-linejoin="round"/>
</svg>
