<svg width="24" height="24" viewBox="0 0 24 24" fill="none" xmlns="http://www.w3.org/2000/svg">
<path d="M13.4551 12.4024H5.21041V9.20807H13.4551C13.9366 9.20807 14.2715 9.29027 14.4396 9.43376C14.6076 9.57733 14.7118 9.84347 14.7118 10.2324V11.3793C14.7118 11.7891 14.6076 12.0552 14.4396 12.1988C14.2715 12.3423 13.9366 12.4037 13.4551 12.4037V12.4024ZM14.0207 6.19651H1.71387V19.8571H5.21041V15.4127H11.6542L14.7118 19.8571H18.6271L15.256 15.3919C16.4989 15.2116 17.057 14.8386 17.5173 14.224C17.9775 13.6095 18.2083 12.6269 18.2083 11.3155V10.2912C18.2083 9.51355 18.1242 8.8989 17.9775 8.4279C17.8307 7.95682 17.5799 7.54711 17.2238 7.17914C16.8475 6.83071 16.4286 6.5854 15.9257 6.421C15.4228 6.27751 14.7945 6.19531 14.0207 6.19531V6.19651Z" fill="#012B7A"/>
<path d="M21.3132 6.19529C22.7968 6.19529 23.9994 5.03232 23.9994 3.59764C23.9994 2.16305 22.7968 1 21.3132 1C19.8296 1 18.627 2.16305 18.627 3.59764C18.627 5.03232 19.8296 6.19529 21.3132 6.19529Z" fill="#012B7A"/>
</svg>
