<svg width="32" height="32" viewBox="0 0 32 32" fill="none" xmlns="http://www.w3.org/2000/svg">
<path d="M19.2071 28H12.7917C12.1394 28 11.8134 27.9995 11.5065 27.9258C11.2344 27.8605 10.9746 27.7533 10.7361 27.6071C10.4669 27.4422 10.2368 27.2121 9.77564 26.7509L5.25 22.2253C4.78909 21.7644 4.55809 21.5333 4.39323 21.2643C4.24702 21.0257 4.139 20.7657 4.07368 20.4936C4 20.1867 4 19.8593 4 19.207V12.7917C4 12.1394 4 11.8134 4.07368 11.5065C4.139 11.2344 4.24702 10.9746 4.39323 10.7361C4.55664 10.4694 4.78461 10.2414 5.23745 9.78859L5.25 9.77565L9.77565 5.25L9.78853 5.23751C10.2414 4.78462 10.4694 4.55664 10.7361 4.39323C10.9746 4.24702 11.2344 4.139 11.5065 4.07368C11.8134 4 12.1394 4 12.7917 4H19.207C19.8593 4 20.1867 4 20.4936 4.07368C20.7657 4.139 21.0257 4.24702 21.2643 4.39323C21.5333 4.55809 21.7643 4.78909 22.2253 5.25L26.7509 9.77564C27.212 10.2368 27.4422 10.467 27.6071 10.7361C27.7533 10.9747 27.8605 11.2344 27.9258 11.5065C27.9995 11.8134 28 12.1394 28 12.7917V19.2071M27.9995 19.2083C27.9995 19.8606 27.9995 20.1867 27.9258 20.4936C27.8605 20.7657 27.7533 21.0257 27.6071 21.2643C27.4422 21.5334 27.2121 21.7641 26.7509 22.2253L22.2253 26.7509C21.7641 27.2121 21.5334 27.4422 21.2643 27.6071C21.0257 27.7533 20.7657 27.8605 20.4936 27.9258C20.1867 27.9995 19.8606 27.9995 19.2083 27.9995" stroke="#012B7A" stroke-width="2" stroke-linecap="round" stroke-linejoin="round"/>
</svg>
