<svg width="32" height="32" viewBox="0 0 32 32" fill="none" xmlns="http://www.w3.org/2000/svg">
<path d="M22.6667 26.6666C22.6667 24.4575 19.6819 22.6666 16 22.6666C12.3181 22.6666 9.33333 24.4575 9.33333 26.6666M28 22.6671C28 21.0269 26.3545 19.6172 24 19M4 22.6671C4 21.0269 5.64546 19.6172 8 19M24 13.6481C24.8183 12.9157 25.3333 11.8513 25.3333 10.6666C25.3333 8.45749 23.5425 6.66663 21.3333 6.66663C20.3089 6.66663 19.3743 7.05176 18.6667 7.68515M8 13.6481C7.18167 12.9157 6.66667 11.8513 6.66667 10.6666C6.66667 8.45749 8.45753 6.66663 10.6667 6.66663C11.6911 6.66663 12.6257 7.05176 13.3333 7.68515M16 18.6666C13.7909 18.6666 12 16.8758 12 14.6666C12 12.4575 13.7909 10.6666 16 10.6666C18.2091 10.6666 20 12.4575 20 14.6666C20 16.8758 18.2091 18.6666 16 18.6666Z" stroke="#012B7A" stroke-width="2" stroke-linecap="square" stroke-linejoin="round"/>
</svg>
