<svg width="32" height="32" viewBox="0 0 32 32" fill="none" xmlns="http://www.w3.org/2000/svg">
<path d="M18.2222 4H13.7778C12.7959 4 12 4.76751 12 5.71429V11.5714C12 12.1237 11.5523 12.5714 11 12.5714H5.77778C4.79594 12.5714 4 13.3389 4 14.2857V17.7143C4 18.6611 4.79594 19.4286 5.77778 19.4286H11C11.5523 19.4286 12 19.8763 12 20.4286V26.2857C12 27.2325 12.7959 28 13.7778 28H18.2222C19.2041 28 20 27.2325 20 26.2857V20.4286C20 19.8763 20.4477 19.4286 21 19.4286H26.2222C27.2041 19.4286 28 18.6611 28 17.7143V14.2857C28 13.3389 27.2041 12.5714 26.2222 12.5714H21C20.4477 12.5714 20 12.1237 20 11.5714V5.71429C20 4.76751 19.2041 4 18.2222 4Z" stroke="#012B7A" stroke-width="2"/>
</svg>
