<svg width="32" height="32" viewBox="0 0 32 32" fill="none" xmlns="http://www.w3.org/2000/svg">
<path d="M10.8284 21.1716C10.1046 20.4477 9.10457 20 8 20C5.79086 20 4 21.7909 4 24C4 26.2091 5.79086 28 8 28C10.2091 28 12 26.2091 12 24C12 22.8954 11.5523 21.8954 10.8284 21.1716ZM10.8284 21.1716L21.1716 10.8284M21.1716 10.8284C21.8954 11.5523 22.8954 12 24 12C26.2091 12 28 10.2091 28 8C28 5.79086 26.2091 4 24 4C21.7909 4 20 5.79086 20 8C20 9.10457 20.4477 10.1046 21.1716 10.8284ZM21.1716 10.8284L21.1771 10.8229" stroke="#012B7A" stroke-width="2" stroke-linecap="round" stroke-linejoin="round"/>
</svg>
