<svg width="32" height="32" viewBox="0 0 32 32" fill="none" xmlns="http://www.w3.org/2000/svg">
<path d="M9.33301 8.26693V23.7336C9.33301 25.2271 9.33301 25.9734 9.62366 26.5438C9.87932 27.0456 10.287 27.454 10.7887 27.7096C11.3586 28 12.105 28 13.5956 28H18.4038C19.8943 28 20.6397 28 21.2095 27.7096C21.7113 27.454 22.1203 27.0456 22.376 26.5438C22.6663 25.974 22.6663 25.2287 22.6663 23.7381V8.26255C22.6663 6.77199 22.6663 6.0256 22.376 5.45573C22.1203 4.95396 21.7113 4.54631 21.2095 4.29065C20.6391 4 19.8934 4 18.3999 4H13.5999C12.1065 4 11.3592 4 10.7887 4.29065C10.287 4.54631 9.87932 4.95396 9.62366 5.45573C9.33301 6.02616 9.33301 6.77345 9.33301 8.26693Z" stroke="#012B7A" stroke-width="2" stroke-linecap="round" stroke-linejoin="round"/>
</svg>
