<svg width="32" height="32" viewBox="0 0 32 32" fill="none" xmlns="http://www.w3.org/2000/svg">
<path d="M13.2227 21.3333H6.55599M6.55599 21.3333V28M6.55599 21.3333C7.55984 23.0581 9.14176 24.4987 10.9062 25.431C12.6707 26.3633 14.6618 26.7817 16.6523 26.6391C18.6429 26.4964 20.5532 25.7987 22.1667 24.6243C23.7802 23.4499 25.0318 21.8464 25.7794 19.9961M18.556 10.6667H25.2227M25.2227 10.6667V4M25.2227 10.6667C24.2188 8.94189 22.638 7.5011 20.8735 6.56882C19.109 5.63654 17.1195 5.21799 15.129 5.36068C13.1385 5.50336 11.2262 6.20189 9.61272 7.3763C7.99924 8.55072 6.74758 10.1542 6 12.0045" stroke="#012B7A" stroke-width="2" stroke-linecap="square" stroke-linejoin="round"/>
</svg>
