<svg width="32" height="32" viewBox="0 0 32 32" fill="none" xmlns="http://www.w3.org/2000/svg">
<path d="M4 7.66663V22.0665C4 23.5599 4 24.3061 4.29065 24.8766C4.54631 25.3783 4.95395 25.7871 5.45571 26.0427C6.02558 26.3331 6.77196 26.3331 8.26249 26.3331H23.7372C25.2278 26.3331 25.9731 26.3331 26.5429 26.0427C27.0447 25.7871 27.4537 25.3786 27.7094 24.8768C28 24.3064 28 23.5597 28 22.0662L28 11.933C28 10.4395 28 9.69277 27.7094 9.12235C27.4537 8.62059 27.0449 8.21294 26.5432 7.95728C25.9728 7.66663 25.2266 7.66663 23.7331 7.66663H15.9999M4 7.66663H15.9999M4 7.66663C4 6.19389 5.19389 5 6.66663 5H11.5659C12.2182 5 12.5451 5 12.8519 5.07368C13.124 5.139 13.3837 5.24702 13.6223 5.39322C13.8913 5.55808 14.1223 5.78908 14.5832 6.24999L15.9999 7.66663" stroke="#012B7A" stroke-width="2" stroke-linecap="square" stroke-linejoin="round"/>
</svg>
