<svg width="32" height="32" viewBox="0 0 32 32" fill="none" xmlns="http://www.w3.org/2000/svg">
<path d="M24.4 28C24.4 25.349 20.8183 23.2 16.4 23.2C11.9817 23.2 8.4 25.349 8.4 28M30.8 23.2006C30.8 21.2323 28.8254 19.5407 26 18.8M2 23.2006C2 21.2323 3.97455 19.5407 6.8 18.8M26 12.3778C26.982 11.4989 27.6 10.2216 27.6 8.8C27.6 6.14903 25.451 4 22.8 4C21.5706 4 20.4492 4.46217 19.6 5.22223M6.8 12.3778C5.818 11.4989 5.2 10.2216 5.2 8.8C5.2 6.14903 7.34903 4 10 4C11.2294 4 12.3508 4.46217 13.2 5.22223M16.4 18.4C13.749 18.4 11.6 16.251 11.6 13.6C11.6 10.949 13.749 8.8 16.4 8.8C19.051 8.8 21.2 10.949 21.2 13.6C21.2 16.251 19.051 18.4 16.4 18.4Z" stroke="#012B7A" stroke-width="2" stroke-linecap="square" stroke-linejoin="round"/>
</svg>
