<svg width="32" height="32" viewBox="0 0 32 32" fill="none" xmlns="http://www.w3.org/2000/svg">
<path d="M10 16H16M16 16H22M16 16V22M16 16V10M4 23.2003V8.80029C4 7.12014 4 6.27943 4.32698 5.6377C4.6146 5.07321 5.07321 4.6146 5.6377 4.32698C6.27943 4 7.12014 4 8.80029 4H23.2003C24.8805 4 25.7201 4 26.3618 4.32698C26.9263 4.6146 27.3857 5.07321 27.6733 5.6377C28.0003 6.27943 28.0003 7.11951 28.0003 8.79967V23.1997C28.0003 24.8798 28.0003 25.7199 27.6733 26.3617C27.3857 26.9262 26.9263 27.3857 26.3618 27.6733C25.7207 28 24.8822 28 23.2054 28H8.79536C7.11849 28 6.2788 28 5.6377 27.6733C5.07321 27.3857 4.6146 26.9263 4.32698 26.3618C4 25.7201 4 24.8804 4 23.2003Z" stroke="#012B7A" stroke-width="2" stroke-linecap="square" stroke-linejoin="round"/>
</svg>
