<svg width="64" height="64" viewBox="0 0 64 64" fill="none" xmlns="http://www.w3.org/2000/svg">
<path d="M62 59V47H50C56.6274 47 62 52.3726 62 59Z" fill="#00CED1"/>
<path fill-rule="evenodd" clip-rule="evenodd" d="M62 13C62 8.58172 58.4183 5 54 5H10C5.58172 5 2 8.58172 2 13V39C2 43.4183 5.58172 47 10 47H62V13ZM23 26C23 24.3431 21.6569 23 20 23C18.3431 23 17 24.3431 17 26C17 27.6569 18.3431 29 20 29C21.6569 29 23 27.6569 23 26ZM29 26C29 24.3431 30.3431 23 32 23C33.6569 23 35 24.3431 35 26C35 27.6569 33.6569 29 32 29C30.3431 29 29 27.6569 29 26ZM47 26C47 24.3431 45.6569 23 44 23C42.3431 23 41 24.3431 41 26C41 27.6569 42.3431 29 44 29C45.6569 29 47 27.6569 47 26Z" fill="#00CED1"/>
</svg>
