<svg width="34" height="20" viewBox="0 0 34 20" fill="none" xmlns="http://www.w3.org/2000/svg">
<path d="M21.6183 17.8627H12.8035V2.13888H21.6183V17.8627Z" fill="#FF5F00"/>
<path d="M13.3681 10.0001C13.3681 6.81037 14.8727 3.96907 17.2158 2.13808C15.5023 0.799167 13.3399 0 10.9897 0C5.42607 0 0.916016 4.47712 0.916016 10.0001C0.916016 15.5229 5.42607 20 10.9897 20C13.3399 20 15.5023 19.2009 17.2158 17.8619C14.8727 16.031 13.3681 13.1896 13.3681 10.0001Z" fill="#EB001B"/>
<path d="M33.5067 10.0001C33.5067 15.5229 28.9966 20 23.433 20C21.0828 20 18.9204 19.2009 17.2063 17.8619C19.55 16.031 21.0546 13.1896 21.0546 10.0001C21.0546 6.81037 19.55 3.96907 17.2063 2.13808C18.9204 0.799167 21.0828 0 23.433 0C28.9966 0 33.5067 4.47712 33.5067 10.0001Z" fill="#F79E1B"/>
</svg>
