<svg width="32" height="32" viewBox="0 0 32 32" fill="none" xmlns="http://www.w3.org/2000/svg">
<path d="M17.6667 4.00116C17.5393 4 17.3964 4 17.233 4H11.2669C9.77345 4 9.02616 4 8.45573 4.29065C7.95396 4.54631 7.54631 4.95396 7.29065 5.45573C7 6.02616 7 6.77345 7 8.26693V23.7336C7 25.2271 7 25.9734 7.29065 26.5438C7.54631 27.0456 7.95396 27.454 8.45573 27.7096C9.02561 28 9.77201 28 11.2626 28L21.4041 28C22.8947 28 23.64 28 24.2099 27.7096C24.7116 27.454 25.1206 27.0456 25.3763 26.5438C25.6667 25.974 25.6667 25.2287 25.6667 23.7381V12.4342C25.6667 12.2706 25.6666 12.1275 25.6654 12M17.6667 4.00116C18.0475 4.00463 18.2885 4.01846 18.5185 4.07368C18.7906 4.139 19.0505 4.24702 19.2891 4.39323C19.5581 4.55809 19.7891 4.78909 20.25 5.25L24.4173 9.41731C24.8785 9.87852 25.1078 10.1085 25.2727 10.3776C25.4189 10.6162 25.5271 10.8763 25.5924 11.1484C25.6476 11.3783 25.6618 11.6193 25.6654 12M17.6667 4.00116V7.73333C17.6667 9.22681 17.6667 9.97302 17.9573 10.5435C18.213 11.0452 18.6206 11.454 19.1224 11.7096C19.6923 12 20.4387 12 21.9292 12H25.6654M25.6654 12H25.6669" stroke="#012B7A" stroke-width="2" stroke-linecap="square" stroke-linejoin="round"/>
</svg>
