<svg width="32" height="32" viewBox="0 0 32 32" fill="none" xmlns="http://www.w3.org/2000/svg">
<path d="M19.9999 13.3331L14.6666 18.6664L11.9999 15.9997M17.6614 4.61172L19.2893 5.99905C19.6995 6.34857 20.2087 6.55988 20.7459 6.60274L22.8779 6.77266C24.1315 6.87269 25.1271 7.86773 25.2272 9.12124L25.3967 11.2536C25.4395 11.7908 25.6516 12.3008 26.0011 12.7109L27.3878 14.3384C28.2035 15.2955 28.2036 16.7034 27.388 17.6605L26.0012 19.2882C25.6517 19.6984 25.4399 20.2085 25.3971 20.7457L25.2265 22.8778C25.1265 24.1313 24.1323 25.1269 22.8788 25.227L20.746 25.3971C20.2089 25.44 19.6991 25.6508 19.289 26.0003L17.6614 27.3876C16.7043 28.2033 15.2956 28.2034 14.3385 27.3878L12.7109 26.0004C12.3007 25.6509 11.791 25.4397 11.2538 25.3969L9.12103 25.227C7.86752 25.1269 6.8734 24.1315 6.77337 22.878L6.6028 20.7458C6.55994 20.2087 6.34815 19.6989 5.99863 19.2888L4.61192 17.6606C3.79628 16.7035 3.7959 15.296 4.61153 14.3389L5.9995 12.7107C6.34902 12.3005 6.55877 11.7908 6.60163 11.2537L6.7722 9.12149C6.87223 7.86798 7.86922 6.87256 9.12273 6.77253L11.2532 6.60261C11.7903 6.55974 12.3003 6.34861 12.7105 5.99909L14.3386 4.61172C15.2957 3.79609 16.7043 3.79609 17.6614 4.61172Z" stroke="#012B7A" stroke-width="2" stroke-linecap="square" stroke-linejoin="round"/>
</svg>
