<svg width="64" height="64" viewBox="0 0 64 64" fill="none" xmlns="http://www.w3.org/2000/svg">
<path opacity="0.4" d="M6.5 39.5C6.5 35.3579 9.85786 32 14 32C18.1421 32 21.5 35.3579 21.5 39.5V59.7778C21.5 61.0051 20.5051 62 19.2778 62H8.72222C7.49492 62 6.5 61.0051 6.5 59.7778V39.5Z" fill="#00CED1"/>
<rect opacity="0.4" x="6.5" y="11" width="15" height="18" rx="7.5" fill="#00CED1"/>
<path d="M18.5 35C18.5 30.0294 22.5294 26 27.5 26C32.4706 26 36.5 30.0294 36.5 35V59.3333C36.5 60.8061 35.3061 62 33.8333 62H21.1667C19.6939 62 18.5 60.8061 18.5 59.3333V35Z" fill="#00CED1"/>
<rect x="18.5" y="2" width="18" height="21" rx="9" fill="#00CED1"/>
<rect x="42.5" y="8" width="15" height="3" fill="#00CED1"/>
<rect x="48.5" y="2" width="3" height="15" fill="#00CED1"/>
</svg>
