<svg width="32" height="32" viewBox="0 0 32 32" fill="none" xmlns="http://www.w3.org/2000/svg">
<path d="M13.5714 23.7143V20.4874M13.5714 20.4874V16.9916M13.5714 20.4874H11M13.5714 20.4874H19M13.5714 16.9916V10H17.7899C19.7206 10 21.2857 11.5651 21.2857 13.4958C21.2857 15.4265 19.7206 16.9916 17.7899 16.9916H13.5714ZM13.5714 16.9916H11M16.5 28C10.1487 28 5 22.8513 5 16.5C5 10.1487 10.1487 5 16.5 5C22.8513 5 28 10.1487 28 16.5C28 22.8513 22.8513 28 16.5 28Z" stroke="#012B7A" stroke-width="2"/>
</svg>
