<svg width="16" height="17" viewBox="0 0 16 17" fill="none" xmlns="http://www.w3.org/2000/svg">
<path d="M1 2.375C1 1.89175 1.39175 1.5 1.875 1.5H5.725C6.20825 1.5 6.6 1.89175 6.6 2.375V6.225C6.6 6.70825 6.20825 7.1 5.725 7.1H1.875C1.39175 7.1 1 6.70825 1 6.225V2.375Z" fill="#012B7A"/>
<path d="M9.4 2.375C9.4 1.89175 9.79175 1.5 10.275 1.5H14.125C14.6082 1.5 15 1.89175 15 2.375V6.225C15 6.70825 14.6082 7.1 14.125 7.1H10.275C9.79175 7.1 9.4 6.70825 9.4 6.225V2.375Z" fill="#012B7A"/>
<path d="M1 10.775C1 10.2918 1.39175 9.9 1.875 9.9H5.725C6.20825 9.9 6.6 10.2918 6.6 10.775V14.625C6.6 15.1082 6.20825 15.5 5.725 15.5H1.875C1.39175 15.5 1 15.1082 1 14.625V10.775Z" fill="#012B7A"/>
<path d="M9.4 10.775C9.4 10.2918 9.79175 9.9 10.275 9.9H14.125C14.6082 9.9 15 10.2918 15 10.775V14.625C15 15.1082 14.6082 15.5 14.125 15.5H10.275C9.79175 15.5 9.4 15.1082 9.4 14.625V10.775Z" fill="#012B7A"/>
</svg>
