<svg width="24" height="24" viewBox="0 0 24 24" fill="none" xmlns="http://www.w3.org/2000/svg">
<path fill-rule="evenodd" clip-rule="evenodd" d="M2.4436 11.492C8.0807 9.03605 11.8397 7.41683 13.7205 6.63458C19.0906 4.401 20.2064 4.01297 20.9337 4.00013C21.0937 3.99733 21.4514 4.037 21.6831 4.22495C21.8787 4.38373 21.9325 4.59817 21.9583 4.74867C21.9841 4.89917 22.0162 5.24193 21.9906 5.50992C21.6997 8.56752 20.4405 15.9876 19.7999 19.4123C19.5287 20.8613 18.9951 21.3472 18.4784 21.3947C17.3553 21.498 16.5026 20.6526 15.4151 19.9396C13.7131 18.824 12.7517 18.1295 11.0997 17.0409C9.19055 15.7828 10.4281 15.0913 11.5162 13.9613C11.801 13.6655 16.7486 9.1652 16.8443 8.75699C16.8564 8.70588 16.8674 8.5156 16.7544 8.41503C16.6413 8.31458 16.4745 8.34889 16.354 8.3763C16.1833 8.41504 13.4645 10.2121 8.1976 13.7674C7.42585 14.2974 6.72678 14.5556 6.10051 14.542C5.41008 14.5271 4.08195 14.1517 3.09471 13.8307C1.88371 13.4371 0.921213 13.2289 1.0051 12.5603C1.04873 12.2122 1.52823 11.856 2.4436 11.492Z" fill="#012B7A"/>
</svg>
