<svg width="32" height="32" viewBox="0 0 32 32" fill="none" xmlns="http://www.w3.org/2000/svg">
<path d="M19.9997 12L14.6663 17.3333L11.9997 14.6667M26.6663 13.5534C26.6663 22.3111 20.0423 26.2374 17.234 27.5085L17.2305 27.5101C16.9352 27.6437 16.7871 27.7108 16.4515 27.7684C16.239 27.8049 15.7617 27.8049 15.5492 27.7684C15.2122 27.7105 15.0626 27.6433 14.7649 27.5085C11.9567 26.2374 5.33301 22.3111 5.33301 13.5534V8.26693C5.33301 6.77345 5.33301 6.02616 5.62366 5.45573C5.87932 4.95396 6.28697 4.54631 6.78874 4.29065C7.35917 4 8.10646 4 9.59994 4H22.3999C23.8934 4 24.6391 4 25.2095 4.29065C25.7113 4.54631 26.1203 4.95396 26.376 5.45573C26.6663 6.0256 26.6663 6.77199 26.6663 8.26255V13.5534Z" stroke="#012B7A" stroke-width="2" stroke-linecap="square"/>
</svg>
