<svg width="24" height="24" viewBox="0 0 24 24" fill="none" xmlns="http://www.w3.org/2000/svg">
<path fill-rule="evenodd" clip-rule="evenodd" d="M11.7784 18.117H13.2336C13.2336 18.117 13.6701 18.0472 13.8884 17.8379C14.1066 17.6286 14.1066 17.21 14.1066 17.21C14.1066 17.21 14.1066 15.3959 14.9797 15.1168C15.8528 14.8378 17.0169 16.9309 18.181 17.6984C19.0541 18.3263 19.7089 18.1868 19.7089 18.1868L22.9102 18.117C22.9102 18.117 24.5836 18.0472 23.7832 16.7216C23.7105 16.6518 23.3467 15.8146 21.3823 14.0703C19.3451 12.2562 19.6361 12.6051 22.0371 9.46537C23.4922 7.58154 24.0743 6.4652 23.9287 5.90703C23.7832 5.41863 22.6919 5.55817 22.6919 5.55817H19.0541C19.0541 5.55817 18.763 5.4884 18.6175 5.62794C18.3993 5.76748 18.3265 5.9768 18.3265 5.9768C18.3265 5.9768 17.7445 7.442 17.0169 8.69788C15.4163 11.2794 14.7614 11.419 14.5432 11.2794C13.9611 10.9306 14.1066 9.74445 14.1066 8.97697C14.1066 6.4652 14.5432 5.41863 13.3063 5.13954C12.9425 5.06977 12.6515 5 11.6329 5C10.3233 5 9.23197 5 8.64992 5.27909C8.21338 5.4884 7.92236 5.90703 8.14062 5.90703C8.35889 5.90703 8.94094 6.04657 9.23197 6.39543C9.52299 7.02337 9.52299 8.06994 9.52299 8.06994C9.52299 8.06994 9.74126 11.0701 9.0137 11.419C8.50441 11.6981 7.8496 11.1399 6.39447 8.76765C5.66691 7.58154 5.08486 6.18611 5.08486 6.18611C5.08486 6.18611 5.0121 5.90703 4.79383 5.76749C4.57556 5.62794 4.21178 5.55817 4.21178 5.55817H0.792235C0.792235 5.55817 0.282941 5.55817 0.0646723 5.76749C-0.0808404 5.9768 0.0646723 6.32566 0.0646723 6.32566C0.0646723 6.32566 2.75666 12.326 5.81242 15.3959C8.64992 18.3263 11.7784 18.117 11.7784 18.117Z" fill="#012B7A"/>
</svg>
