<svg width="24" height="24" viewBox="0 0 24 24" fill="none" xmlns="http://www.w3.org/2000/svg">
<path d="M13.9286 13.9286C12.3571 15.55 12.2429 17.5714 12.1071 22C16.2357 22 19.0857 21.9857 20.5571 20.5571C21.9857 19.0857 22 16.1 22 12.1071C17.5714 12.25 15.55 12.3571 13.9286 13.9286ZM2 12.1071C2 16.1 2.01433 19.0857 3.44289 20.5571C4.91433 21.9857 7.76433 22 11.8929 22C11.75 17.5714 11.6429 15.55 10.0714 13.9286C8.45 12.3571 6.42856 12.2429 2 12.1071ZM11.8929 2C7.77145 2 4.91433 2.01433 3.44289 3.44289C2.01433 4.91433 2 7.9 2 11.8929C6.42856 11.75 8.45 11.6429 10.0714 10.0714C11.6429 8.45 11.7571 6.42856 11.8929 2ZM13.9286 10.0714C12.3571 8.45 12.2429 6.42856 12.1071 2C16.2357 2 19.0857 2.01433 20.5571 3.44289C21.9857 4.91433 22 7.9 22 11.8929C17.5714 11.75 15.55 11.6429 13.9286 10.0714Z" fill="#012B7A"/>
</svg>
